<svg width="113" height="261" viewBox="0 0 113 261" fill="none" xmlns="http://www.w3.org/2000/svg">
<g clip-path="url(#clip0_5_67)">
<path fill-rule="evenodd" clip-rule="evenodd" d="M44.9562 31.6756C43.6238 31.4963 43.5828 30.549 43.5651 29.5878L43.6905 12.6002C42.7889 12.0358 42.7421 11.2345 42.6776 10.438C40.5445 10.0874 40.8985 8.68899 41.037 7.33506C42.0396 7.15916 41.8194 7.19241 42.6849 7.09602C42.5157 6.549 42.8343 5.06137 43.7507 4.86783C43.2602 2.94592 44.4384 3.14656 45.6195 2.98846C47.8718 2.68698 47.1157 3.81174 47.3609 4.76866C48.1603 4.95348 48.6698 5.69121 48.661 6.81126L50.3739 6.85062C50.855 9.80202 49.4956 9.83097 48.6286 9.97061C48.5963 10.9302 48.9096 12.0957 47.6956 12.5051C47.992 13.6602 48.4051 14.9161 48.8885 16.2327C51.0974 21.1138 51.4578 26.6561 51.2302 31.1889L44.9562 31.6756Z" fill="white" stroke="white" stroke-width="0.276793"/>
<path fill-rule="evenodd" clip-rule="evenodd" d="M43.7627 5.0314L43.6437 11.0581C43.645 12.0026 43.9103 12.6415 44.9567 12.3763L46.7582 12.2776C48.3824 12.3078 47.838 11.3851 48.0644 10.8011L47.1902 4.68248C47.2652 3.59083 47.0991 2.71232 45.4655 3.13126C44.6004 3.22683 43.4752 2.8523 43.7627 5.0314Z" fill="white" stroke="white" stroke-width="0.276793"/>
<path fill-rule="evenodd" clip-rule="evenodd" d="M44.948 17.211L45.139 25.6815C45.1489 26.5943 45.4959 26.6892 45.872 26.7131L49.1734 26.4392C50.1096 26.3106 49.871 25.8083 49.7576 24.9825L48.0531 16.9514C47.8982 16.5828 47.8981 16.122 47.1055 16.1327L45.5353 16.2474C45.0837 16.3929 44.9392 16.7493 44.948 17.211Z" fill="white" stroke="white" stroke-width="0.276793"/>
<path fill-rule="evenodd" clip-rule="evenodd" d="M44.948 17.211L45.139 25.6815C45.1489 26.5943 45.4959 26.6892 45.872 26.7131L49.1734 26.4392C50.1096 26.3106 49.871 25.8083 49.7576 24.9825L48.0531 16.9514C47.8982 16.5828 47.8981 16.122 47.1055 16.1327L45.5353 16.2474C45.0837 16.3929 44.9392 16.7493 44.948 17.211Z" fill="white" stroke="white" stroke-width="0.276793"/>
<path fill-rule="evenodd" clip-rule="evenodd" d="M43.6506 18.3581L39.3958 18.6359C39.1586 17.9273 37.8438 17.8823 36.878 17.9318C35.5588 17.9994 34.4296 18.9099 34.9278 20.0473C35.4772 21.3016 37.6012 20.9462 39.4825 20.2738L43.6344 19.9377L43.6506 18.3581Z" fill="white" stroke="white" stroke-width="0.276793"/>
<path fill-rule="evenodd" clip-rule="evenodd" d="M43.6247 25.6605L39.3699 25.9383C39.1328 25.2297 37.8044 25.4488 36.8385 25.4983C35.5194 25.5659 34.029 26.4665 34.9019 27.3497C35.8224 28.281 37.5753 28.2487 39.4566 27.5762L43.6085 27.2402L43.6247 25.6605Z" fill="white" stroke="white" stroke-width="0.276793"/>
<path fill-rule="evenodd" clip-rule="evenodd" d="M49.5617 17.7949L52.3118 17.627C52.4991 18.8258 53.3665 19.8423 54.7895 19.5836C55.7546 19.4082 56.9106 18.1068 56.8595 16.407C56.8137 14.884 55.2821 13.6909 53.9391 13.7922C52.8901 13.8713 52.1469 14.709 52.162 16.0266L48.8487 16.137L49.5617 17.7949Z" fill="white" stroke="white" stroke-width="0.276793"/>
<path fill-rule="evenodd" clip-rule="evenodd" d="M51.0223 23.8378L54.0668 23.6484C54.2542 24.8471 55.1216 25.8637 56.5445 25.605C57.5096 25.4296 58.6656 24.1282 58.6146 22.4284C58.5688 20.9054 57.0372 19.7122 55.6942 19.8135C54.6451 19.8927 53.902 20.7304 53.9171 22.0479L50.8096 22.2748L51.0223 23.8378Z" fill="white" stroke="white" stroke-width="0.276793"/>
<path fill-rule="evenodd" clip-rule="evenodd" d="M58.5709 202.849C58.1735 203.309 58.7113 205.598 60.8022 205.384C62.8047 205.178 63.0332 202.931 62.556 202.651L58.5709 202.849Z" fill="white" stroke="white" stroke-width="0.276793"/>
<path fill-rule="evenodd" clip-rule="evenodd" d="M59.9628 205.352L62.0597 231.522L64.0594 249.492L62.8319 224.782L61.8787 204.84C61.4017 205.282 60.7213 205.383 59.9628 205.352Z" fill="white" stroke="white" stroke-width="0.276793"/>
<path fill-rule="evenodd" clip-rule="evenodd" d="M54.9694 203.205C54.9694 203.205 55.095 204.289 55.9959 204.526C56.8968 204.762 58.573 204.151 58.573 204.151L58.5709 202.849L54.9694 203.205Z" fill="white" stroke="white" stroke-width="0.276793"/>
<path opacity="0.98" fill-rule="evenodd" clip-rule="evenodd" d="M58.8667 201.805L63.4927 201.467C63.5693 198.971 63.0845 193.91 62.6503 191.204C62.1138 184.813 61.3459 181.264 62.5898 173.815C63.7563 170.091 63.8394 165.82 63.7335 161.453C60.7483 162.513 57.4897 163.166 53.3983 162.58C54.1275 166.523 54.4141 170.326 56.3254 174.644C58.6594 180.466 58.6559 185.326 58.4781 190.113C58.1282 194.045 58.4933 197.925 58.8667 201.805Z" fill="white" stroke="white" stroke-width="0.276793"/>
<path fill-rule="evenodd" clip-rule="evenodd" d="M55.4394 163.033L54.4888 157.912L52.5405 143.298L44.8419 27.0514L45.5118 27.069L46.6592 26.9852" fill="white"/>
<path d="M55.4394 163.033L54.4888 157.912L52.5405 143.298L44.8419 27.0514L45.5118 27.069L46.6592 26.9852" stroke="white" stroke-width="0.276793"/>
<path fill-rule="evenodd" clip-rule="evenodd" d="M58.3626 167.602L56.662 144.312L56.5665 143.004L46.6592 26.9852L46.7791 26.9765L47.2747 27.517" fill="white"/>
<path d="M58.3626 167.602L56.662 144.312L56.5665 143.004L46.6592 26.9852L46.7791 26.9765L47.2747 27.517" stroke="white" stroke-width="0.276793"/>
<path fill-rule="evenodd" clip-rule="evenodd" d="M60.5774 167.309L59.5788 144.625L59.4259 142.532L48.6061 26.7766L48.3802 26.8596" fill="white"/>
<path d="M60.5774 167.309L59.5788 144.625L59.4259 142.532L48.6061 26.7766L48.3802 26.8596" stroke="white" stroke-width="0.276793"/>
<path fill-rule="evenodd" clip-rule="evenodd" d="M62.8112 167.277L62.7381 144.658L62.547 142.041L49.8572 25.896" fill="white"/>
<path d="M62.8112 167.277L62.7381 144.658L62.547 142.041L49.8572 25.896" stroke="white" stroke-width="0.276793"/>
</g>
<g clip-path="url(#clip1_5_67)">
<path d="M33.9847 144.954C43.4232 163.515 38.7346 174.926 18.4373 175.803C24.8898 183.346 24.61 183.423 28.5389 186.218C32.5989 189.008 37.155 191.124 42.2072 192.567C47.3853 193.885 52.9234 194.416 58.8215 194.161C68.5205 193.742 76.0984 191.339 81.5553 186.952C87.0121 182.565 89.587 176.819 89.2801 169.717C89.1522 166.757 88.4447 164.06 87.1576 161.625C86.0017 159.184 84.0644 156.896 81.3458 154.76C78.6221 152.505 74.9835 150.35 70.43 148.293C66.0076 146.231 60.3978 144.042 53.6008 141.726C45.3365 138.881 38.3879 136.098 32.7552 133.376C27.1224 130.654 22.5986 127.766 19.1838 124.711C15.7689 121.657 13.2639 118.385 11.6687 114.895C10.1994 111.282 9.36499 107.167 9.16546 102.55C8.93011 97.1044 9.76121 92.0278 11.6588 87.3202C13.6874 82.6069 16.5961 78.5079 20.3849 75.0232C24.1685 71.4202 28.7089 68.6146 34.0059 66.6066C39.2978 64.4802 45.7204 62.6896 52.1427 62.412C57.9097 62.1628 63.4108 62.3247 68.7897 63.4199C79.1187 66.428 83.0885 68.8346 84.8935 70.6342C86.6986 72.4337 86.7482 73.583 86.7482 73.583C86.7482 73.583 83.4243 76.6054 87.4223 75.8569C91.4202 75.1084 87.6744 78.658 87.6209 80.4543C87.2723 92.1777 98.157 111.09 72.5612 106.438C46.9654 101.787 79.258 84.3987 74.295 78.2085C68.1923 73.728 60.9468 71.6691 52.5585 72.0316C44.5633 72.3771 38.2833 74.4276 33.7183 78.1831C29.1534 81.9385 27.0014 86.835 27.2623 92.8726C27.3851 95.7138 28.0219 98.2956 29.1728 100.618C30.3185 102.822 32.1171 104.938 34.5684 106.967C37.0146 108.878 40.1842 110.816 44.0773 112.783C47.9652 114.631 52.7758 116.558 58.5089 118.564C68.3767 122.052 76.596 125.373 83.1667 128.529C89.7323 131.566 94.9898 134.719 98.9391 137.988C102.883 141.138 105.724 144.574 107.46 148.294C109.192 151.896 110.157 156.005 110.357 160.622C110.612 166.542 109.537 172.044 107.131 177.13C104.724 182.214 101.238 186.634 96.6735 190.39C92.1085 194.145 86.5929 197.172 80.1265 199.467C73.6549 201.645 66.4871 202.903 58.6231 203.243C51.1522 203.566 44.3613 202.911 38.2503 201.277C32.2704 199.638 26.1031 196.702 19.7485 192.47C19.7485 192.47 -6.89886 171.478 13.3617 169.295C33.6222 167.113 12.0763 144.264 6.97481 146.121C1.8733 147.978 24.5463 126.392 33.9847 144.954Z" fill="white"/>
<path d="M13.7029 106.198C12.7718 106.458 12.0529 106.698 11.5463 106.918C11.0397 107.139 10.6833 107.386 10.4773 107.661C10.2796 107.953 10.222 108.296 10.3043 108.688C10.3951 109.097 10.5773 109.61 10.8512 110.225L9.78971 110.521L5.72861 102.048L6.79008 101.752C7.10117 102.357 7.39101 102.83 7.6596 103.17C7.95517 103.522 8.29276 103.764 8.67237 103.895C9.05198 104.027 9.5099 104.057 10.0461 103.987C10.601 103.911 11.316 103.751 12.1913 103.507L23.5323 100.345C24.3144 100.127 24.9401 99.9131 25.4095 99.7032C25.9059 99.5055 26.2571 99.2692 26.4631 98.9944C26.6775 98.737 26.757 98.4184 26.7016 98.0386C26.6649 97.6535 26.5314 97.1769 26.3012 96.6087L27.3627 96.3127L31.1731 104.262L30.1117 104.558C29.8256 104.006 29.5339 103.573 29.2364 103.261C28.9473 102.966 28.5985 102.767 28.19 102.663C27.8085 102.572 27.331 102.567 26.7575 102.648C26.1924 102.746 25.4908 102.912 24.6528 103.145L13.7029 106.198Z" fill="black"/>
<path d="M16.1341 117.098L26.8288 115.247C27.4366 115.142 27.9009 115.046 28.2217 114.959C28.5425 114.872 28.8094 114.767 29.0223 114.644C29.3605 114.449 29.5168 114.22 29.491 113.958C29.4749 113.705 29.2503 113.337 28.8174 112.851L29.5314 112.439L33.0382 116.373L32.3242 116.785C32.0654 116.558 31.8228 116.371 31.5966 116.224C31.3801 116.087 31.1529 115.981 30.9151 115.906C30.6869 115.841 30.4307 115.809 30.1466 115.81C29.8847 115.814 29.5789 115.843 29.2292 115.897L12.8981 118.668L12.393 118.102L20.3758 107.179C20.6265 106.822 20.8271 106.494 20.9777 106.195C21.1378 105.906 21.2334 105.631 21.2644 105.368C21.2955 105.105 21.2635 104.845 21.1684 104.59C21.0732 104.334 20.9131 104.059 20.688 103.764L21.4209 103.342L26.1255 108.619L25.3927 109.041C25.1233 108.739 24.8833 108.502 24.6725 108.329C24.4839 108.16 24.3039 108.043 24.1325 107.979C23.9737 107.907 23.8249 107.878 23.6862 107.893C23.5475 107.907 23.4155 107.951 23.2903 108.023C23.1149 108.124 22.9323 108.27 22.7424 108.461C22.565 108.645 22.3244 108.939 22.0207 109.343L16.1341 117.098Z" fill="black"/>
<path d="M35.7793 124.559L31.2024 118.325C30.5483 118.705 29.9732 119.053 29.4771 119.369C28.9923 119.67 28.5752 119.938 28.2258 120.175C27.8878 120.428 27.612 120.657 27.3982 120.861C27.1845 121.066 27.0215 121.247 26.9094 121.404C26.5953 121.844 26.4794 122.291 26.5618 122.744C26.6553 123.181 26.9421 123.727 27.422 124.381L26.7827 125.276L22.6172 119.603L23.2565 118.707C23.553 119.018 23.8207 119.259 24.0597 119.429C24.31 119.615 24.5543 119.731 24.7923 119.776C25.0418 119.837 25.2965 119.828 25.5564 119.748C25.8389 119.668 26.1494 119.532 26.4878 119.343L41.8973 110.064L42.6344 111.068L37.0367 129.665C36.6714 130.903 36.3953 131.922 36.2082 132.721C36.0323 133.504 35.9405 134.154 35.9327 134.67C35.9248 135.186 35.9957 135.624 36.1453 135.982C36.3064 136.357 36.5355 136.746 36.8326 137.151L36.1765 138.07L30.5882 130.459L31.2444 129.54C31.85 130.365 32.3232 130.854 32.664 131.008C33.0047 131.163 33.304 131.059 33.562 130.697C33.6742 130.54 33.7694 130.391 33.8477 130.25C33.9372 130.093 34.0209 129.912 34.0988 129.708C34.1881 129.52 34.2715 129.293 34.3489 129.026C34.449 128.76 34.5544 128.438 34.6651 128.062L35.7793 124.559ZM32.3865 117.613L36.2948 122.936L39.3553 113.39L32.3865 117.613Z" fill="black"/>
<g clip-path="url(#clip2_5_67)">
<path d="M50.3997 133.086L46.8414 116.561L46.7608 116.526L42.6595 124.962C42.3394 125.621 42.1066 126.15 41.9612 126.549C41.8292 126.955 41.7792 127.292 41.8111 127.561C41.8564 127.836 41.9906 128.062 42.2139 128.238C42.4505 128.421 42.7805 128.612 43.204 128.812L42.839 129.563L37.4188 127.209L37.7838 126.458C38.2604 126.649 38.6557 126.773 38.9698 126.829C39.3037 126.879 39.5993 126.84 39.8566 126.712C40.1138 126.584 40.3557 126.355 40.5824 126.022C40.8154 125.677 41.0824 125.195 41.3833 124.576L45.2829 116.554C45.5518 116.001 45.7458 115.535 45.865 115.156C46.004 114.77 46.0508 114.439 46.0055 114.164C45.9736 113.895 45.8426 113.663 45.6123 113.467C45.3885 113.258 45.0681 113.047 44.651 112.834L45.016 112.083L49.0055 113.816L52.2113 129.159L52.2918 129.194L56.0762 121.41C56.3899 120.764 56.6127 120.239 56.7447 119.834C56.8966 119.421 56.9498 119.077 56.9045 118.802C56.8726 118.533 56.7413 118.327 56.5 118.086C55.9248 117.51 55.9248 117.51 55.9248 117.51L60.5265 119.236L61.307 119.554L60.9519 119.914C60.4753 119.723 60.07 119.603 59.7362 119.554C59.422 119.497 59.1363 119.532 58.8791 119.66C58.6219 119.787 58.3767 120.024 58.1437 120.369C57.9107 120.715 57.6469 121.19 57.3524 121.796L51.6087 133.611L50.3997 133.086Z" fill="black"/>
</g>
<path d="M60.8049 135.697L61.7963 136.257C61.44 137.116 61.239 137.956 61.1934 138.778C61.1655 139.61 61.277 140.391 61.5276 141.121C61.7961 141.861 62.1948 142.546 62.7239 143.174C63.2815 143.795 63.9622 144.333 64.7661 144.787C66.088 145.533 67.3202 145.817 68.4627 145.638C69.6053 145.459 70.4974 144.845 71.1392 143.794C71.4067 143.357 71.5723 142.909 71.6362 142.45C71.7179 142.002 71.6817 141.511 71.5277 140.976C71.3844 140.424 71.1106 139.811 70.7065 139.135C70.3203 138.469 69.7893 137.687 69.1136 136.787C68.2948 135.689 67.644 134.709 67.1612 133.848C66.6783 132.986 66.358 132.193 66.2003 131.468C66.0425 130.744 66.0258 130.063 66.1502 129.427C66.3032 128.783 66.5882 128.12 67.0054 127.437C67.4975 126.632 68.095 125.969 68.798 125.447C69.5188 124.936 70.297 124.587 71.1324 124.399C71.9785 124.194 72.848 124.167 73.7408 124.318C74.6444 124.452 75.5338 124.766 76.4091 125.26C77.1951 125.704 77.8527 126.24 78.3817 126.869C78.9108 127.497 79.3579 128.28 79.7229 129.216L81.1416 128.427L81.7579 128.776L78.8597 134.168L77.8683 133.608C78.3167 131.93 78.344 130.509 77.9501 129.345C77.5741 128.19 76.8145 127.291 75.6712 126.645C74.5815 126.029 73.5547 125.803 72.5907 125.965C71.6267 126.127 70.872 126.654 70.3264 127.547C70.0697 127.967 69.9058 128.393 69.8348 128.823C69.7745 129.237 69.8088 129.692 69.9378 130.188C70.0775 130.668 70.3101 131.211 70.6356 131.819C70.9718 132.409 71.4224 133.087 71.9872 133.854C72.9562 135.178 73.7232 136.341 74.2883 137.343C74.8641 138.328 75.2559 139.22 75.4637 140.02C75.6823 140.803 75.7276 141.535 75.5996 142.216C75.4824 142.88 75.2152 143.553 74.798 144.236C74.2632 145.111 73.5925 145.816 72.7859 146.349C71.9794 146.883 71.0941 147.23 70.1301 147.392C69.1662 147.554 68.1466 147.532 67.0716 147.325C66.0073 147.101 64.9392 146.686 63.8674 146.081C62.8492 145.506 62.0148 144.846 61.3642 144.102C60.7315 143.368 60.1986 142.431 59.7655 141.292L58.229 142.155L57.6127 141.807L60.8049 135.697Z" fill="black"/>
<path d="M80.7924 139.227C80.4909 139.598 80.2669 139.913 80.1203 140.171C79.9736 140.43 79.9143 140.66 79.9424 140.862C79.9705 141.063 80.0795 141.253 80.2694 141.432C80.4673 141.601 80.7575 141.795 81.1402 142.012L80.688 142.568L75.3746 139.552L75.8268 138.996C76.2094 139.213 76.5314 139.368 76.7927 139.459C77.0729 139.547 77.3262 139.569 77.5526 139.527C77.7869 139.474 78.0132 139.353 78.2314 139.164C78.4576 138.964 78.7095 138.694 78.9871 138.352L84.5319 131.536C84.8333 131.165 85.044 130.857 85.1638 130.612C85.3025 130.362 85.3539 130.142 85.3179 129.951C85.2928 129.765 85.1883 129.599 85.0044 129.452C84.8284 129.295 84.5764 129.124 84.2484 128.937L84.7005 128.382L89.6859 131.211L89.2338 131.767C88.9058 131.581 88.6221 131.448 88.3826 131.369C88.1432 131.29 87.9063 131.277 87.672 131.329C87.4486 131.388 87.2198 131.522 86.9857 131.731C86.7596 131.931 86.4878 132.225 86.1705 132.615L83.2316 136.228L90.9129 134.152C91.3299 134.032 91.5939 133.904 91.7049 133.768C91.9271 133.495 91.7265 133.181 91.1033 132.828L91.5555 132.272L95.5077 134.515L95.0675 135.056C94.8488 134.932 94.6456 134.838 94.4578 134.774C94.278 134.701 94.0743 134.656 93.8469 134.641C93.6303 134.632 93.3751 134.651 93.0812 134.698C92.7873 134.745 92.4303 134.821 92.0104 134.925L86.3453 136.349L86.9575 144.201C87.0008 144.639 87.0951 144.985 87.2405 145.238C87.3937 145.482 87.6726 145.719 88.0771 145.948L87.625 146.504L82.5904 143.647L83.0425 143.091C83.4689 143.333 83.7988 143.478 84.0323 143.525C84.2737 143.562 84.4499 143.512 84.5609 143.376C84.6244 143.298 84.6719 143.161 84.7034 142.965C84.7349 142.769 84.7396 142.508 84.7173 142.182L84.375 136.856L82.2916 137.384L80.7924 139.227Z" fill="black"/>
<path d="M92.7068 179.388L97.5923 185.186C97.87 185.515 98.0924 185.761 98.2594 185.924C98.4265 186.087 98.5867 186.211 98.7402 186.296C98.984 186.431 99.1875 186.445 99.3507 186.336C99.5102 186.238 99.6745 185.972 99.8436 185.539L100.358 185.825L98.9883 189.33L98.4736 189.044C98.533 188.808 98.572 188.596 98.5908 188.407C98.6058 188.228 98.5971 188.054 98.5647 187.884C98.5285 187.723 98.4615 187.557 98.3637 187.386C98.2711 187.229 98.1469 187.055 97.9911 186.864L90.5669 177.991L90.7642 177.486L100.656 178.443C100.976 178.469 101.26 178.474 101.507 178.459C101.751 178.454 101.964 178.414 102.147 178.34C102.33 178.266 102.488 178.155 102.623 178.007C102.758 177.859 102.883 177.666 102.999 177.426L103.527 177.719L101.689 182.421L101.161 182.128C101.266 181.859 101.339 181.63 101.379 181.442C101.425 181.268 101.44 181.118 101.423 180.992C101.416 180.871 101.383 180.771 101.326 180.693C101.269 180.614 101.195 180.55 101.105 180.5C100.978 180.43 100.82 180.371 100.63 180.324C100.448 180.282 100.173 180.241 99.8048 180.2L92.7068 179.388Z" fill="black"/>
<path d="M86.9723 185.125C86.6462 184.602 86.3686 184.204 86.1395 183.93C85.9104 183.656 85.6888 183.475 85.4746 183.387C85.2504 183.306 85.0171 183.315 84.7748 183.415C84.5225 183.521 84.2184 183.695 83.8624 183.937L83.4906 183.342L88.3436 179.836L88.7154 180.432C88.3724 180.695 88.1124 180.928 87.9353 181.132C87.7547 181.353 87.6535 181.585 87.6315 181.829C87.6095 182.072 87.6665 182.349 87.8027 182.66C87.9454 182.982 88.17 183.388 88.4765 183.879L92.4485 190.243C92.7224 190.682 92.9674 191.028 93.1835 191.281C93.396 191.552 93.6094 191.732 93.8236 191.819C94.0278 191.914 94.2494 191.921 94.4882 191.84C94.7336 191.769 95.0225 191.628 95.3551 191.418L95.7269 192.014L91.1734 195.303L90.8017 194.707C91.1147 194.466 91.3482 194.237 91.5023 194.019C91.6464 193.809 91.7179 193.575 91.7168 193.318C91.7123 193.079 91.6355 192.793 91.4863 192.462C91.3271 192.137 91.1008 191.739 90.8073 191.269L86.9723 185.125Z" fill="black"/>
<path d="M95.5476 173.031L97.0034 165.086C96.246 164.862 95.5695 164.674 94.9738 164.524C94.3981 164.371 93.895 164.247 93.4646 164.151C93.0306 164.075 92.6592 164.029 92.3504 164.014C92.0416 163.998 91.7874 164.004 91.5876 164.032C91.0282 164.108 90.6059 164.34 90.3207 164.728C90.0555 165.112 89.8466 165.721 89.6939 166.554L88.5551 166.71L89.88 159.48L91.0188 159.324C90.9952 159.772 91.0042 160.148 91.0459 160.451C91.084 160.775 91.1712 161.043 91.3074 161.257C91.4399 161.49 91.6297 161.676 91.8767 161.816C92.14 161.974 92.4651 162.113 92.8519 162.234L110.943 167.292L110.709 168.571L92.5693 177.645C91.3669 178.255 90.3952 178.775 89.6541 179.205C88.933 179.633 88.3736 180.029 87.9758 180.393C87.578 180.757 87.2964 181.124 87.1311 181.495C86.9622 181.886 86.8304 182.339 86.7359 182.855L85.5672 183.015L87.3447 173.315L88.5134 173.155C88.3208 174.206 88.288 174.917 88.4151 175.286C88.5422 175.655 88.8354 175.808 89.295 175.745C89.4947 175.718 89.6764 175.683 89.8398 175.641C90.0233 175.597 90.2203 175.531 90.431 175.444C90.6381 175.377 90.8706 175.278 91.1285 175.145C91.4027 175.03 91.7224 174.88 92.0875 174.695L95.5476 173.031ZM98.3927 165.476L97.1496 172.26L106.595 167.744L98.3927 165.476Z" fill="black"/>
<path d="M98.5244 164.451L104.86 148.654L104.804 148.579L95.9694 153.257C95.2797 153.622 94.7488 153.93 94.3766 154.179C94.0137 154.441 93.7684 154.693 93.6406 154.936C93.522 155.19 93.5165 155.455 93.624 155.73C93.7407 156.018 93.9408 156.366 94.2242 156.774L93.438 157.191L89.6908 152.129L90.477 151.713C90.8158 152.144 91.1173 152.474 91.3812 152.701C91.6683 152.933 91.971 153.069 92.2894 153.11C92.6077 153.151 92.9717 153.098 93.3812 152.951C93.8046 152.797 94.3404 152.548 94.9887 152.205L103.389 147.757C103.968 147.45 104.426 147.173 104.761 146.926C105.119 146.683 105.358 146.435 105.476 146.18C105.604 145.938 105.617 145.669 105.514 145.374C105.424 145.072 105.245 144.713 104.975 144.297L105.762 143.881L108.52 147.607L102.545 162.217L102.6 162.292L110.752 157.976C111.428 157.618 111.948 157.308 112.311 157.046C112.696 156.789 112.949 156.533 113.067 156.279C113.195 156.036 113.201 155.771 113.084 155.484C112.976 155.209 112.781 154.867 112.498 154.459L113.284 154.042L117.031 159.104L116.245 159.52C115.906 159.089 115.593 158.757 115.306 158.524C115.042 158.298 114.751 158.164 114.432 158.123C114.114 158.082 113.743 158.138 113.32 158.293C112.896 158.447 112.368 158.692 111.733 159.028L99.3602 165.58L98.5244 164.451Z" fill="black"/>
<path d="M87.8407 152.711L82.4318 147.488C81.5312 147.643 80.738 147.79 80.0522 147.928C79.3827 148.057 78.8058 148.175 78.3213 148.282C77.8503 148.402 77.4636 148.516 77.1613 148.624C76.8589 148.732 76.6259 148.832 76.4622 148.924C76.0039 149.182 75.8063 149.479 75.8694 149.815C75.9488 150.141 76.2721 150.579 76.8394 151.127L75.9065 151.651L70.9838 146.897L71.9167 146.373C72.2764 146.645 72.6052 146.862 72.9031 147.025C73.2146 147.201 73.525 147.326 73.8343 147.399C74.1572 147.486 74.494 147.524 74.8446 147.512C75.2252 147.505 75.6481 147.463 76.1133 147.387L97.3625 143.491L98.2336 144.332L88.9859 156.555C88.38 157.371 87.9136 158.045 87.5867 158.58C87.2762 159.105 87.0899 159.55 87.0277 159.915C86.9656 160.28 87.0151 160.603 87.1764 160.884C87.3512 161.178 87.6141 161.494 87.9652 161.834L87.0078 162.372L80.4037 155.994L81.3612 155.456C82.0769 156.147 82.6517 156.577 83.0855 156.746C83.5193 156.915 83.9244 156.893 84.3008 156.682C84.4645 156.59 84.605 156.501 84.7224 156.414C84.8562 156.318 84.9847 156.205 85.1079 156.073C85.2445 155.955 85.3773 155.809 85.5062 155.633C85.6649 155.461 85.8361 155.251 86.0198 155.004L87.8407 152.711ZM84.0645 147.189L88.6833 151.65L93.6769 145.408L84.0645 147.189Z" fill="black"/>
</g>
<defs>
<clipPath id="clip0_5_67">
<rect width="77.0789" height="255.48" fill="white" transform="translate(7.61009 5.61311) rotate(-4.17614)"/>
</clipPath>
<clipPath id="clip1_5_67">
<rect width="106.99" height="141.503" fill="white" transform="translate(0 64.6655) rotate(-2.47465)"/>
</clipPath>
<clipPath id="clip2_5_67">
<rect width="25.3095" height="23.0086" fill="white" transform="translate(36.3675 111.758)"/>
</clipPath>
</defs>
</svg>
