<?xml version="1.0" encoding="UTF-8" standalone="no"?>
<!DOCTYPE svg PUBLIC "-//W3C//DTD SVG 1.1//EN" "http://www.w3.org/Graphics/SVG/1.1/DTD/svg11.dtd">
<!-- Created with Vectornator (http://vectornator.io/) -->
<svg height="100%" stroke-miterlimit="10" style="fill-rule:nonzero;clip-rule:evenodd;stroke-linecap:round;stroke-linejoin:round;" version="1.1" viewBox="0 0 227.418 290.022" width="100%" xml:space="preserve" xmlns="http://www.w3.org/2000/svg" xmlns:vectornator="http://vectornator.io" xmlns:xlink="http://www.w3.org/1999/xlink">
<defs/>
<g id="Layer-1" vectornator:layerName="Layer 1">
<g opacity="1">
<path d="M103.632 49.6013C103.438 49.5739 103.143 49.6393 102.817 49.6832C102.697 49.6994 102.61 49.6721 102.49 49.6832C102.303 49.7007 102.087 49.7283 101.92 49.7652C101.752 49.8021 101.637 49.8216 101.512 49.9291C101.269 50.1396 101.222 50.5837 101.349 51.1585C101.013 51.2833 100.738 51.5656 100.615 51.8962C100.546 52.083 100.55 52.293 100.534 52.4699C100.523 52.5866 100.521 52.6994 100.534 52.7978C100.309 52.8227 100.155 52.8643 100.045 52.8797C99.8984 52.9001 99.7964 52.8904 99.3923 52.9617L99.3108 52.9617L99.3108 53.0437C99.3022 53.1275 99.2389 53.2048 99.2292 53.2895C99.1758 53.7575 99.1529 54.2731 99.3108 54.6829C99.4751 55.1101 99.8469 55.4575 100.615 55.5845C100.659 56.1163 100.695 56.7205 101.267 57.1417L101.267 61.4857L98.1693 61.7316C97.9888 61.1892 96.9481 61.12 96.2126 61.1579C95.2082 61.2096 94.3657 61.9264 94.7451 62.7971C95.1634 63.7572 96.737 63.4758 98.1693 62.961L101.267 62.7151L101.186 67.1411L98.0878 67.305C97.9073 66.7626 96.9481 66.9393 96.2126 66.9772C95.2082 67.0289 94.0805 67.6945 94.7451 68.3705C95.446 69.0833 96.737 69.1311 98.1693 68.6164L101.186 68.2885L101.186 70.0917C101.193 70.4545 101.201 70.8426 101.349 71.1572C101.503 71.4855 101.791 71.7404 102.327 71.8129L102.409 71.8129L102.49 71.8129L104.039 95.8277C100.485 96.388 96.9763 97.2529 94.0113 98.4505C89.9781 99.9877 86.5379 102.167 83.657 104.925C80.7722 107.593 78.5977 110.661 77.0531 114.269C75.6083 117.873 74.9172 121.821 75.0964 125.99C75.2483 129.524 75.9344 132.65 77.0531 135.415C78.2677 138.086 80.1601 140.618 82.7602 142.956C85.3603 145.294 88.8257 147.511 93.1145 149.595C97.1556 151.558 102.214 153.531 108.034 155.578L108.116 157.135L109.584 168.364L110.236 171.724C109.698 171.702 109.347 171.971 108.768 171.888C109.323 174.906 109.596 177.844 111.051 181.15C112.828 185.607 112.817 189.288 112.682 192.952C112.59 193.992 112.747 195.035 112.763 196.067C108.337 196.244 104.182 195.834 100.289 194.838C96.4425 193.734 92.9446 192.137 89.8533 190.002C86.8619 187.862 87.1024 187.826 82.1895 182.051C97.6439 181.38 101.198 172.654 94.0113 158.447C86.8248 144.239 69.5815 160.769 73.4658 159.348C77.3501 157.927 93.7025 175.381 78.2761 177.052C62.8496 178.722 83.1679 194.756 83.1679 194.756C88.0063 197.995 92.7193 200.304 97.2725 201.558C101.46 202.684 106.188 202.957 111.214 202.87L109.991 203.034C109.991 203.034 110.121 203.836 110.806 204.017C111.493 204.198 112.763 203.771 112.763 203.771L112.763 203.034C112.68 203.561 113.025 204.509 114.149 204.591C114.023 204.598 113.957 204.678 113.823 204.673L115.372 224.672L116.921 238.441L115.943 219.508L115.209 204.263C115.105 204.36 114.929 204.287 114.801 204.345C115.757 203.867 116.087 202.805 115.78 202.624L114.964 202.624C120.023 202.235 124.886 201.608 129.151 200.165C134.074 198.408 138.231 196.073 141.706 193.198C145.182 190.324 147.864 186.927 149.696 183.035C151.528 179.142 152.337 174.944 152.142 170.413C151.99 166.879 151.259 163.744 149.941 160.987C148.619 158.14 146.503 155.53 143.5 153.119C140.493 150.617 136.433 148.149 131.434 145.824C126.756 143.566 120.776 141.174 113.905 138.694L109.991 102.794C115.549 102.892 120.504 104.23 124.667 107.302C128.445 112.04 103.873 125.38 123.362 128.94C142.851 132.501 134.592 117.997 134.858 109.024C134.898 107.649 137.739 104.926 134.695 105.499C131.651 106.072 134.206 103.778 134.206 103.778C134.206 103.778 134.112 102.942 132.738 101.565C131.364 100.188 128.373 98.2942 120.509 95.9916C116.836 95.2399 113.077 95.145 109.176 95.254L106.567 71.567L107.138 71.4851L107.219 71.4031L107.219 71.3211C107.305 69.6076 107.304 67.688 107.056 65.7477L109.339 65.5838C109.482 66.5014 110.131 67.2571 111.214 67.0591C111.949 66.9248 112.802 65.9014 112.763 64.6003C112.728 63.4345 111.585 62.5556 110.562 62.6332C109.763 62.6937 109.164 63.3459 109.176 64.3544L106.812 64.5183L106.893 65.092C106.652 63.5325 106.195 62.0064 105.589 60.5022L105.833 61.0759L107.953 60.994C108.096 61.9115 108.745 62.6673 109.828 62.4693C110.563 62.335 111.498 61.3115 111.459 60.0104C111.424 58.8446 110.199 57.9658 109.176 58.0433C108.377 58.1039 107.86 58.756 107.871 59.7645L105.426 59.8465C105.068 58.8667 104.752 57.9203 104.529 57.0598C104.849 56.9152 105.095 56.753 105.181 56.4861C105.274 56.1947 105.272 55.8109 105.262 55.5025C105.259 55.3889 105.261 55.2814 105.262 55.1747C105.585 55.1262 106.028 55.1129 106.322 54.7649C106.619 54.415 106.742 53.7929 106.567 52.7158L106.567 52.6338L106.485 52.6338L105.181 52.5519C105.124 51.8347 104.832 51.2537 104.284 51.0766C104.241 50.9088 104.283 50.7672 104.284 50.5848C104.285 50.4521 104.224 50.3005 104.203 50.175C104.181 50.0472 104.141 49.9462 104.039 49.8471C103.939 49.7485 103.826 49.6287 103.632 49.6013ZM104.039 59.9284C104.288 59.9615 104.461 60.0334 104.529 60.1743C104.55 60.2212 104.509 60.2783 104.529 60.3383C104.545 60.3856 104.589 60.4519 104.61 60.5022L105.915 66.6493C105.924 66.7145 105.905 66.8367 105.915 66.8952C105.929 66.981 105.988 66.9897 105.996 67.0591C106.014 67.3247 105.946 67.5549 105.589 67.6329L103.061 67.7968C103.028 67.7947 103.008 67.8009 102.98 67.7968C102.805 67.7713 102.729 67.5732 102.653 67.305C102.642 67.2325 102.573 67.2439 102.572 67.1411L102.49 60.6661C102.487 60.4995 102.515 60.3601 102.572 60.2563C102.59 60.2228 102.626 60.2028 102.653 60.1743C102.705 60.1205 102.737 60.0452 102.817 60.0104L104.039 59.9284ZM106.485 71.567L108.687 95.254C108.365 95.2688 107.762 95.3333 107.708 95.3359L105.507 71.649L106.485 71.567ZM105.262 71.649L107.301 95.4179C107.15 95.4272 106.704 95.5177 106.241 95.5818L103.958 71.8129L105.262 71.649ZM103.795 71.8129L105.915 95.5818C105.411 95.6523 104.935 95.7305 104.773 95.7457L102.653 71.8949L103.795 71.8129ZM107.871 102.794L110.97 137.546C110.445 137.355 110.249 137.244 109.747 137.054L106.893 102.876C107.49 102.803 107.367 102.821 107.871 102.794ZM108.279 102.794C108.582 102.772 108.933 102.772 109.339 102.794L111.051 121.4L112.519 138.12C112.197 138.006 112.017 137.905 111.703 137.792L108.279 102.794ZM106.485 102.958L107.79 120.17L109.013 136.809C108.477 136.605 108.545 136.518 108.034 136.317L105.262 103.122C105.586 103.074 105.952 102.97 106.485 102.958ZM104.529 103.204L106.73 135.825C105.072 135.149 103.036 134.426 101.675 133.776C98.7111 132.271 96.2815 130.813 94.419 129.35C92.5526 127.797 91.2149 126.201 90.3425 124.514C89.4662 122.737 88.9684 120.706 88.8749 118.531C88.6763 113.91 90.3725 110.177 93.8483 107.302C96.5595 105.06 100.228 103.858 104.529 103.204ZM109.339 156.152C110.05 156.397 109.804 156.402 110.48 156.643L112.274 171.56L111.54 158.119L111.459 156.971C112.015 157.17 112.149 157.266 112.682 157.463L113.905 171.396C113.395 171.502 112.818 171.505 112.274 171.56C111.623 171.626 111.029 171.749 110.317 171.724L109.339 156.152ZM113.497 157.791C113.812 157.909 114.088 158.001 114.394 158.119L115.535 171.233C115.1 171.364 114.524 171.297 114.068 171.396L113.497 158.201L113.497 157.791ZM115.943 158.692C117.84 159.447 120.206 160.272 121.731 160.987C125.199 162.562 127.974 164.179 130.048 165.905C132.117 167.54 133.651 169.282 134.532 171.151C135.512 173.015 135.983 175.114 136.081 177.38C136.314 182.816 134.365 187.218 130.211 190.576C126.707 193.407 121.824 194.903 116.024 195.575C115.953 194.981 115.934 194.312 115.861 193.854C115.453 188.963 114.832 186.196 115.78 180.494C116.668 177.644 116.757 174.411 116.677 171.069C116.466 171.144 116.158 171.081 115.943 171.151L115.943 158.692Z" fill="#ffffff" fill-rule="nonzero" opacity="1" stroke="none"/>
</g>
</g>
</svg>
