<svg height="100%" stroke-miterlimit="10" style="fill-rule:nonzero;clip-rule:evenodd;stroke-linecap:round;stroke-linejoin:round;" version="1.1" viewBox="0 0 274.682 270.229" width="100%" xml:space="preserve" xmlns="http://www.w3.org/2000/svg" xmlns:vectornator="http://vectornator.io" xmlns:xlink="http://www.w3.org/1999/xlink">
<defs/>
<g id="Layer-1" vectornator:layerName="Layer 1">
<g opacity="1">
<path d="M140.247 125.33C140.247 126.035 140.275 126.593 140.331 127.002C140.388 127.412 140.494 127.729 140.649 127.955C140.818 128.181 141.051 128.329 141.348 128.399C141.658 128.47 142.06 128.513 142.554 128.527L142.554 129.331L135.695 129.331L135.695 128.527C136.189 128.513 136.585 128.47 136.881 128.399C137.192 128.315 137.431 128.167 137.601 127.955C137.77 127.743 137.883 127.447 137.939 127.066C137.996 126.67 138.024 126.142 138.024 125.478L138.024 116.884C138.024 116.291 137.996 115.804 137.939 115.423C137.897 115.028 137.798 114.717 137.643 114.492C137.502 114.266 137.29 114.111 137.008 114.026C136.726 113.927 136.358 113.864 135.907 113.835L135.907 113.031L142.343 113.031L142.343 113.835C141.891 113.849 141.524 113.906 141.242 114.005C140.973 114.103 140.762 114.273 140.607 114.513C140.465 114.739 140.366 115.056 140.31 115.465C140.268 115.875 140.247 116.397 140.247 117.032L140.247 125.33ZM152.504 126.092L156.23 116.905C156.442 116.383 156.59 115.973 156.675 115.677C156.759 115.381 156.801 115.113 156.801 114.873C156.801 114.492 156.682 114.223 156.442 114.068C156.216 113.913 155.785 113.835 155.15 113.835L155.15 113.031L160.294 113.031L160.294 113.835C159.97 113.878 159.687 113.934 159.448 114.005C159.222 114.075 159.017 114.174 158.834 114.301C158.664 114.428 158.509 114.597 158.368 114.809C158.241 115.007 158.114 115.254 157.987 115.55L152.25 129.542L151.509 129.542L146.048 116.354C145.865 115.931 145.681 115.564 145.497 115.254C145.328 114.943 145.137 114.689 144.926 114.492C144.715 114.294 144.474 114.146 144.206 114.047C143.938 113.948 143.621 113.885 143.253 113.857L143.253 113.031L150.155 113.031L150.155 113.857C149.759 113.857 149.435 113.878 149.181 113.92C148.941 113.948 148.751 114.005 148.609 114.089C148.468 114.16 148.369 114.252 148.313 114.365C148.257 114.478 148.229 114.605 148.229 114.746C148.229 114.943 148.264 115.176 148.334 115.444C148.405 115.698 148.539 116.072 148.736 116.566L152.504 126.092ZM168.826 123.425L163.174 123.425C162.934 124.004 162.729 124.519 162.56 124.971C162.39 125.407 162.249 125.789 162.137 126.113C162.038 126.438 161.968 126.713 161.925 126.939C161.883 127.164 161.862 127.348 161.862 127.489C161.862 127.884 161.989 128.16 162.242 128.315C162.497 128.456 162.92 128.527 163.512 128.527L163.512 129.331L158.369 129.331L158.369 128.527C158.693 128.485 158.969 128.427 159.194 128.357C159.434 128.286 159.639 128.188 159.808 128.061C159.991 127.934 160.147 127.771 160.274 127.574C160.415 127.363 160.549 127.108 160.677 126.812L166.18 113.031L167.09 113.031L171.896 124.971C172.22 125.761 172.503 126.396 172.742 126.876C172.983 127.341 173.215 127.694 173.441 127.934C173.667 128.174 173.907 128.329 174.161 128.399C174.429 128.47 174.747 128.506 175.113 128.506L175.113 129.331L168.212 129.331L168.212 128.506C168.96 128.506 169.476 128.434 169.757 128.293C170.04 128.153 170.181 127.92 170.181 127.595C170.181 127.454 170.174 127.327 170.16 127.214C170.146 127.087 170.118 126.953 170.075 126.812C170.047 126.67 169.997 126.515 169.927 126.346C169.87 126.163 169.793 125.951 169.694 125.711L168.826 123.425ZM163.598 122.366L168.424 122.366L166.074 116.122L163.598 122.366ZM189.539 129.542L179.484 116.291L179.399 116.291L179.399 125.33C179.399 126.035 179.421 126.593 179.463 127.002C179.519 127.412 179.618 127.729 179.759 127.955C179.914 128.181 180.126 128.329 180.394 128.399C180.677 128.47 181.043 128.513 181.495 128.527L181.495 129.331L175.8 129.331L175.8 128.527C176.294 128.513 176.69 128.47 176.985 128.399C177.296 128.315 177.536 128.167 177.706 127.955C177.875 127.743 177.988 127.447 178.044 127.066C178.1 126.67 178.129 126.142 178.129 125.478L178.129 116.884C178.129 116.291 178.1 115.804 178.044 115.423C178.002 115.028 177.903 114.717 177.748 114.492C177.606 114.266 177.395 114.111 177.113 114.026C176.83 113.927 176.464 113.864 176.012 113.835L176.012 113.031L180.204 113.031L189.455 125.372L189.539 125.372L189.539 117.032C189.539 116.34 189.511 115.79 189.455 115.381C189.412 114.957 189.313 114.633 189.158 114.407C189.017 114.181 188.805 114.033 188.523 113.962C188.255 113.892 187.895 113.849 187.443 113.835L187.443 113.031L193.138 113.031L193.138 113.835C192.644 113.849 192.241 113.899 191.931 113.984C191.634 114.054 191.402 114.195 191.233 114.407C191.063 114.619 190.95 114.922 190.894 115.317C190.837 115.712 190.809 116.235 190.809 116.884L190.809 129.542L189.539 129.542ZM135.971 150.777L136.754 150.777C136.852 151.413 137.037 151.985 137.304 152.492C137.587 153 137.932 153.431 138.342 153.784C138.765 154.136 139.244 154.412 139.781 154.609C140.331 154.792 140.924 154.884 141.559 154.884C142.603 154.884 143.43 154.637 144.036 154.143C144.643 153.649 144.946 152.979 144.946 152.132C144.946 151.779 144.883 151.455 144.756 151.158C144.643 150.863 144.445 150.58 144.163 150.312C143.881 150.029 143.5 149.755 143.02 149.486C142.554 149.218 141.961 148.928 141.242 148.618C140.366 148.237 139.633 147.871 139.04 147.518C138.447 147.164 137.974 146.798 137.622 146.417C137.269 146.035 137.015 145.634 136.859 145.21C136.719 144.772 136.648 144.278 136.648 143.728C136.648 143.079 136.761 142.479 136.987 141.929C137.227 141.378 137.559 140.906 137.982 140.511C138.405 140.101 138.906 139.791 139.485 139.579C140.064 139.353 140.699 139.241 141.39 139.241C142.011 139.241 142.589 139.339 143.126 139.537C143.662 139.735 144.205 140.052 144.756 140.49L145.306 139.537L145.793 139.537L146.026 143.75L145.243 143.75C144.904 142.593 144.41 141.731 143.761 141.167C143.126 140.602 142.357 140.32 141.453 140.32C140.593 140.32 139.909 140.532 139.4 140.955C138.892 141.378 138.638 141.95 138.638 142.67C138.638 143.008 138.694 143.319 138.808 143.601C138.92 143.87 139.104 144.13 139.358 144.385C139.612 144.624 139.944 144.871 140.352 145.126C140.762 145.365 141.27 145.62 141.877 145.887C142.921 146.353 143.789 146.791 144.48 147.2C145.172 147.595 145.722 147.998 146.132 148.406C146.541 148.802 146.83 149.225 147 149.677C147.169 150.114 147.254 150.608 147.254 151.158C147.254 151.864 147.113 152.513 146.83 153.106C146.548 153.698 146.153 154.207 145.645 154.63C145.136 155.054 144.53 155.385 143.824 155.625C143.119 155.851 142.343 155.964 141.496 155.964C140.691 155.964 139.965 155.851 139.316 155.625C138.68 155.399 138.031 155.019 137.368 154.482L136.775 155.52L136.288 155.52L135.971 150.777ZM153.891 152.386C153.891 152.922 153.919 153.36 153.975 153.698C154.032 154.037 154.145 154.298 154.314 154.482C154.483 154.665 154.716 154.792 155.013 154.863C155.309 154.92 155.704 154.948 156.198 154.948L156.198 155.752L149.339 155.752L149.339 154.948C149.833 154.948 150.229 154.92 150.525 154.863C150.835 154.792 151.075 154.672 151.245 154.503C151.414 154.32 151.527 154.073 151.583 153.763C151.64 153.438 151.668 153.028 151.668 152.534L151.668 142.67C151.668 142.134 151.633 141.71 151.562 141.4C151.506 141.075 151.393 140.829 151.224 140.659C151.068 140.49 150.857 140.384 150.588 140.342C150.32 140.285 149.974 140.257 149.551 140.257L149.551 139.452L155.987 139.452L155.987 140.257C155.563 140.257 155.217 140.285 154.949 140.342C154.681 140.398 154.462 140.518 154.293 140.701C154.138 140.885 154.032 141.146 153.975 141.485C153.919 141.809 153.891 142.254 153.891 142.818L153.891 148.047L159.183 141.675C159.466 141.322 159.606 141.047 159.606 140.85C159.606 140.454 159.204 140.257 158.4 140.257L158.4 139.452L163.501 139.452L163.501 140.236C163.219 140.236 162.973 140.257 162.76 140.299C162.549 140.327 162.337 140.398 162.125 140.511C161.928 140.623 161.716 140.785 161.49 140.998C161.265 141.209 161.003 141.485 160.707 141.823L156.727 146.417L162.908 153.847C163.261 154.256 163.593 154.546 163.903 154.715C164.214 154.87 164.63 154.948 165.152 154.948L165.152 155.752L158.654 155.752L158.654 154.948C159.204 154.948 159.599 154.906 159.839 154.82C160.079 154.722 160.199 154.574 160.199 154.377C160.199 154.263 160.143 154.101 160.03 153.89C159.916 153.677 159.733 153.417 159.48 153.106L155.352 148.026L153.891 149.719L153.891 152.386ZM175.214 149.846L169.562 149.846C169.322 150.425 169.117 150.94 168.948 151.392C168.779 151.829 168.637 152.21 168.525 152.534C168.426 152.859 168.355 153.134 168.313 153.36C168.271 153.586 168.25 153.77 168.25 153.911C168.25 154.305 168.377 154.581 168.63 154.736C168.885 154.877 169.307 154.948 169.9 154.948L169.9 155.752L164.757 155.752L164.757 154.948C165.081 154.906 165.357 154.849 165.582 154.778C165.822 154.708 166.027 154.609 166.196 154.482C166.379 154.355 166.535 154.192 166.662 153.995C166.803 153.784 166.937 153.529 167.064 153.233L172.568 139.452L173.478 139.452L178.284 151.392C178.608 152.182 178.89 152.817 179.13 153.297C179.37 153.763 179.603 154.115 179.828 154.355C180.055 154.595 180.294 154.75 180.549 154.82C180.817 154.891 181.134 154.927 181.501 154.927L181.501 155.752L174.6 155.752L174.6 154.927C175.348 154.927 175.863 154.856 176.145 154.715C176.428 154.574 176.569 154.341 176.569 154.016C176.569 153.875 176.562 153.749 176.548 153.635C176.534 153.508 176.505 153.374 176.463 153.233C176.435 153.092 176.386 152.937 176.314 152.767C176.258 152.584 176.181 152.372 176.082 152.132L175.214 149.846ZM169.986 148.788L174.812 148.788L172.462 142.542L169.986 148.788ZM195.927 155.964L185.872 142.712L185.787 142.712L185.787 151.751C185.787 152.457 185.808 153.014 185.851 153.424C185.907 153.833 186.006 154.15 186.147 154.377C186.302 154.602 186.514 154.75 186.782 154.82C187.064 154.891 187.431 154.934 187.882 154.948L187.882 155.752L182.188 155.752L182.188 154.948C182.682 154.934 183.077 154.891 183.373 154.82C183.684 154.736 183.924 154.588 184.094 154.377C184.263 154.164 184.376 153.868 184.432 153.487C184.488 153.092 184.516 152.563 184.516 151.899L184.516 143.305C184.516 142.712 184.488 142.225 184.432 141.844C184.39 141.449 184.291 141.139 184.136 140.913C183.995 140.687 183.783 140.532 183.501 140.447C183.218 140.349 182.852 140.285 182.4 140.257L182.4 139.452L186.591 139.452L195.842 151.793L195.927 151.793L195.927 143.453C195.927 142.762 195.899 142.211 195.842 141.802C195.8 141.378 195.701 141.054 195.546 140.829C195.405 140.602 195.193 140.454 194.911 140.384C194.643 140.313 194.283 140.271 193.831 140.257L193.831 139.452L199.525 139.452L199.525 140.257C199.031 140.271 198.629 140.32 198.319 140.405C198.022 140.475 197.79 140.616 197.62 140.829C197.451 141.04 197.338 141.343 197.281 141.738C197.225 142.134 197.197 142.656 197.197 143.305L197.197 155.964L195.927 155.964ZM210.42 149.846L204.767 149.846C204.527 150.425 204.323 150.94 204.154 151.392C203.984 151.829 203.843 152.21 203.73 152.534C203.631 152.859 203.561 153.134 203.519 153.36C203.476 153.586 203.455 153.77 203.455 153.911C203.455 154.305 203.582 154.581 203.836 154.736C204.09 154.877 204.513 154.948 205.106 154.948L205.106 155.752L199.962 155.752L199.962 154.948C200.286 154.906 200.562 154.849 200.788 154.778C201.028 154.708 201.232 154.609 201.401 154.482C201.585 154.355 201.74 154.192 201.867 153.995C202.008 153.784 202.142 153.529 202.27 153.233L207.773 139.452L208.684 139.452L213.489 151.392C213.813 152.182 214.096 152.817 214.335 153.297C214.576 153.763 214.808 154.115 215.034 154.355C215.26 154.595 215.5 154.75 215.754 154.82C216.022 154.891 216.34 154.927 216.706 154.927L216.706 155.752L209.805 155.752L209.805 154.927C210.554 154.927 211.069 154.856 211.351 154.715C211.633 154.574 211.774 154.341 211.774 154.016C211.774 153.875 211.767 153.749 211.753 153.635C211.739 153.508 211.711 153.374 211.669 153.233C211.64 153.092 211.59 152.937 211.52 152.767C211.463 152.584 211.386 152.372 211.287 152.132L210.42 149.846ZM205.191 148.788L210.017 148.788L207.668 142.542L205.191 148.788ZM223.804 152.513L227.53 143.326C227.742 142.804 227.89 142.394 227.974 142.099C228.059 141.802 228.102 141.534 228.102 141.294C228.102 140.913 227.981 140.645 227.742 140.49C227.516 140.335 227.085 140.257 226.45 140.257L226.45 139.452L231.594 139.452L231.594 140.257C231.27 140.299 230.987 140.356 230.747 140.426C230.522 140.497 230.317 140.595 230.134 140.722C229.965 140.85 229.809 141.019 229.668 141.23C229.541 141.428 229.414 141.675 229.287 141.971L223.55 155.964L222.81 155.964L217.347 142.776C217.164 142.352 216.981 141.986 216.797 141.675C216.628 141.364 216.438 141.11 216.225 140.913C216.014 140.715 215.775 140.567 215.506 140.468C215.238 140.37 214.92 140.306 214.553 140.278L214.553 139.452L221.454 139.452L221.454 140.278C221.06 140.278 220.735 140.299 220.481 140.342C220.241 140.37 220.05 140.426 219.909 140.511C219.768 140.581 219.669 140.673 219.613 140.785C219.556 140.899 219.528 141.026 219.528 141.167C219.528 141.364 219.563 141.597 219.634 141.865C219.704 142.12 219.838 142.493 220.036 142.987L223.804 152.513ZM236.933 151.751C236.933 152.457 236.961 153.014 237.017 153.424C237.074 153.833 237.179 154.15 237.335 154.377C237.504 154.602 237.737 154.75 238.034 154.82C238.344 154.891 238.746 154.934 239.24 154.948L239.24 155.752L232.381 155.752L232.381 154.948C232.875 154.934 233.271 154.891 233.567 154.82C233.878 154.736 234.117 154.588 234.286 154.377C234.456 154.164 234.569 153.868 234.625 153.487C234.682 153.092 234.71 152.563 234.71 151.899L234.71 143.305C234.71 142.712 234.682 142.225 234.625 141.844C234.583 141.449 234.484 141.139 234.328 140.913C234.188 140.687 233.976 140.532 233.693 140.447C233.412 140.349 233.044 140.285 232.593 140.257L232.593 139.452L239.028 139.452L239.028 140.257C238.577 140.271 238.21 140.327 237.928 140.426C237.659 140.525 237.448 140.694 237.293 140.934C237.151 141.16 237.052 141.478 236.996 141.886C236.954 142.296 236.933 142.818 236.933 143.453L236.933 151.751Z" fill="#ffffff" fill-rule="nonzero" opacity="1" stroke="none" vectornator:layerName="path"/>
<path d="M73.9457 30.672C73.7459 30.6439 73.4415 30.7113 73.1054 30.7565C72.9819 30.7731 72.8924 30.745 72.7693 30.7565C72.5762 30.7745 72.3537 30.803 72.1811 30.841C72.0082 30.879 71.8892 30.8991 71.7609 31.0099C71.5103 31.2269 71.4617 31.6846 71.5929 32.277C71.2469 32.4056 70.9629 32.6966 70.8366 33.0373C70.7651 33.2298 70.7695 33.4463 70.7526 33.6286C70.7415 33.7489 70.7397 33.8651 70.7526 33.9665C70.5213 33.9921 70.3622 34.0351 70.2484 34.051C70.0978 34.072 69.9927 34.062 69.5762 34.1354L69.4921 34.1354L69.4921 34.2199C69.4833 34.3063 69.4181 34.386 69.4081 34.4733C69.353 34.9556 69.3295 35.487 69.4921 35.9094C69.6615 36.3496 70.0447 36.7078 70.8366 36.8386C70.882 37.3867 70.9187 38.0095 71.5088 38.4436L71.5088 42.9207L68.3157 43.1741C68.1297 42.6151 67.0571 42.5438 66.2991 42.5828C65.2638 42.6361 64.3956 43.3749 64.7866 44.2723C65.2177 45.2618 66.8395 44.9717 68.3157 44.4412L71.5088 44.1878L71.4248 48.7494L68.2317 48.9183C68.0456 48.3593 67.0571 48.5414 66.2991 48.5804C65.2638 48.6338 64.1015 49.3197 64.7866 50.0165C65.509 50.7511 66.8395 50.8004 68.3157 50.2699L71.4248 49.932L71.4248 51.7904C71.4318 52.1643 71.4407 52.5643 71.5929 52.8886C71.7515 53.227 72.0483 53.4896 72.6012 53.5644L72.6852 53.5644L72.7693 53.5644L74.3658 78.3151C70.7027 78.8926 67.0861 79.784 64.0303 81.0183C59.8735 82.6026 56.3279 84.849 53.3587 87.6917C50.3855 90.4405 48.1443 93.6035 46.5524 97.3217C45.0633 101.036 44.351 105.105 44.5357 109.401C44.6923 113.044 45.3994 116.265 46.5524 119.116C47.8042 121.868 49.7546 124.478 52.4344 126.887C55.1141 129.297 58.6858 131.583 63.106 133.73C67.271 135.753 72.4845 137.787 78.4832 139.896L78.5672 141.501L80.0797 153.074L80.7519 156.538C80.1979 156.515 79.8358 156.792 79.2394 156.707C79.8116 159.817 80.0924 162.845 81.5922 166.252C83.4236 170.845 83.4124 174.639 83.2728 178.416C83.178 179.488 83.3406 180.563 83.3568 181.626C78.7947 181.809 74.5123 181.386 70.5005 180.359C66.536 179.221 62.9308 177.576 59.7449 175.375C56.6617 173.17 56.9096 173.132 51.8462 167.181C67.7742 166.489 71.4369 157.496 64.0303 142.853C56.6236 128.21 38.8518 145.247 42.8552 143.782C46.8585 142.317 63.712 160.306 47.8128 162.028C31.9136 163.75 52.8545 180.275 52.8545 180.275C57.8412 183.614 62.6987 185.993 67.3914 187.286C71.7068 188.446 76.5806 188.728 81.7603 188.638L80.4999 188.807C80.4999 188.807 80.6332 189.634 81.3401 189.82C82.0473 190.007 83.3568 189.567 83.3568 189.567L83.3568 188.807C83.2708 189.35 83.6268 190.327 84.7853 190.412C84.6548 190.419 84.5876 190.502 84.4492 190.496L86.0457 211.108L87.6423 225.299L86.6339 205.786L85.8777 190.074C85.7703 190.174 85.5888 190.098 85.4575 190.158C86.4424 189.665 86.7829 188.571 86.4659 188.384L85.6256 188.384C90.839 187.983 95.8515 187.337 100.247 185.85C105.321 184.039 109.605 181.632 113.187 178.67C116.769 175.707 119.533 172.206 121.422 168.195C123.31 164.183 124.143 159.856 123.943 155.186C123.786 151.544 123.032 148.313 121.674 145.472C120.311 142.537 118.131 139.847 115.036 137.362C111.936 134.783 107.752 132.24 102.599 129.844C97.7788 127.517 91.615 125.051 84.5332 122.495L80.4999 85.4954C86.2284 85.5961 91.3353 86.9754 95.625 90.1414C99.5193 95.0246 74.1946 108.773 94.2805 112.442C114.367 116.112 105.855 101.164 106.129 91.9154C106.17 90.4984 109.098 87.6924 105.96 88.283C102.823 88.8734 105.456 86.509 105.456 86.509C105.456 86.509 105.36 85.6477 103.944 84.2283C102.528 82.8086 99.445 80.8572 91.3395 78.4841C87.5543 77.7093 83.6802 77.6115 79.6596 77.7238L76.9707 53.3109L77.5589 53.2265L77.6429 53.142L77.6429 53.0575C77.7311 51.2915 77.7304 49.313 77.4748 47.3133L79.8276 47.1444C79.9747 48.09 80.6436 48.869 81.7603 48.6649C82.5175 48.5265 83.3969 47.4716 83.3568 46.1307C83.3208 44.9292 82.1421 44.0234 81.0881 44.1033C80.2647 44.1657 79.6478 44.8379 79.6596 45.8773L77.2228 46.0462L77.3068 46.6375C77.0582 45.0302 76.5874 43.4574 75.9623 41.907L76.2144 42.4983L78.3992 42.4139C78.5462 43.3595 79.2151 44.1385 80.3318 43.9344C81.089 43.796 82.0524 42.7411 82.0124 41.4002C81.9766 40.1986 80.7136 39.2929 79.6596 39.3728C78.8365 39.4352 78.3033 40.1074 78.3151 41.1467L75.7943 41.2312C75.4255 40.2214 75.0998 39.246 74.87 38.3591C75.2002 38.2101 75.4536 38.043 75.5422 37.7678C75.6385 37.4675 75.6362 37.072 75.6262 36.7541C75.6226 36.6371 75.6251 36.5263 75.6262 36.4162C75.9588 36.3662 76.4147 36.3526 76.7186 35.9939C77.024 35.6333 77.1508 34.9921 76.9707 33.882L76.9707 33.7975L76.8866 33.7975L75.5422 33.7131C75.4836 32.9739 75.1828 32.3751 74.6179 32.1926C74.5738 32.0197 74.6168 31.8737 74.6179 31.6857C74.6187 31.5489 74.5556 31.3927 74.5338 31.2633C74.5113 31.1316 74.4704 31.0275 74.3658 30.9254C74.2617 30.8238 74.1462 30.7003 73.9457 30.672ZM74.3658 41.3157C74.6217 41.3498 74.8 41.4238 74.87 41.5691C74.892 41.6174 74.8492 41.6763 74.87 41.7381C74.8864 41.7869 74.9322 41.8552 74.954 41.907L76.2984 48.2425C76.3085 48.3098 76.2884 48.4357 76.2984 48.4959C76.3131 48.5844 76.3738 48.5934 76.3825 48.6649C76.4009 48.9386 76.3304 49.1759 75.9623 49.2562L73.3575 49.4252C73.3234 49.423 73.3031 49.4294 73.2734 49.4252C73.0932 49.3989 73.0151 49.1947 72.9373 48.9183C72.9259 48.8436 72.8544 48.8554 72.8533 48.7494L72.7693 42.076C72.7658 41.9042 72.7944 41.7606 72.8533 41.6536C72.8724 41.619 72.9093 41.5985 72.9373 41.5691C72.9904 41.5136 73.0238 41.436 73.1054 41.4002L74.3658 41.3157ZM76.8866 53.3109L79.1554 77.7238C78.8235 77.7391 78.2025 77.8056 78.1471 77.8083L75.8783 53.3954L76.8866 53.3109ZM75.6262 53.3954L77.7269 77.8927C77.572 77.9023 77.1116 77.9956 76.6346 78.0617L74.2818 53.5644L75.6262 53.3954ZM74.1137 53.5644L76.2984 78.0617C75.7798 78.1344 75.2884 78.2149 75.122 78.2306L72.9373 53.6488L74.1137 53.5644ZM78.3151 85.4954L81.5082 121.312C80.9677 121.115 80.7652 121.001 80.2478 120.805L77.3068 85.5798C77.922 85.5042 77.7957 85.5226 78.3151 85.4954ZM78.7353 85.4954C79.0476 85.4725 79.4089 85.4726 79.8276 85.4954L81.5922 104.671L83.1047 121.903C82.7731 121.786 82.5881 121.682 82.2645 121.566L78.7353 85.4954ZM76.8866 85.6643L78.2311 103.404L79.4915 120.552C78.9388 120.343 79.0094 120.252 78.4832 120.045L75.6262 85.8333C75.9592 85.7832 76.3373 85.6762 76.8866 85.6643ZM74.87 85.9177L77.1387 119.538C75.4299 118.842 73.3318 118.097 71.929 117.426C68.8741 115.875 66.37 114.372 64.4504 112.865C62.5268 111.264 61.1481 109.62 60.249 107.881C59.3459 106.049 58.8329 103.955 58.7365 101.714C58.5318 96.9511 60.28 93.1041 63.8622 90.1414C66.6566 87.8304 70.4379 86.5919 74.87 85.9177ZM79.8276 140.488C80.5605 140.741 80.3072 140.745 81.004 140.994L82.8527 156.369L82.0964 142.515L82.0124 141.332C82.5858 141.538 82.7239 141.636 83.2728 141.839L84.5332 156.2C84.0082 156.309 83.4128 156.312 82.8527 156.369C82.1815 156.437 81.5697 156.563 80.836 156.538L79.8276 140.488ZM84.1131 142.177C84.4374 142.299 84.7221 142.394 85.0374 142.515L86.2138 156.031C85.7655 156.166 85.1715 156.097 84.7013 156.2L84.1131 142.599L84.1131 142.177ZM86.6339 143.106C88.589 143.885 91.0274 144.734 92.6 145.472C96.1733 147.094 99.0334 148.762 101.171 150.54C103.304 152.225 104.885 154.021 105.792 155.946C106.802 157.867 107.289 160.032 107.389 162.366C107.63 167.969 105.621 172.506 101.339 175.967C97.7284 178.885 92.6952 180.427 86.718 181.119C86.6439 180.507 86.6253 179.818 86.5499 179.345C86.1291 174.304 85.4895 171.453 86.4659 165.576C87.3812 162.639 87.473 159.306 87.3902 155.862C87.1727 155.939 86.8555 155.875 86.6339 155.946L86.6339 143.106Z" fill="#ffffff" fill-rule="nonzero" opacity="1" stroke="none"/>
</g>
</g>
</svg>
